<svg width="633" height="346" viewBox="0 0 633 346" fill="none" xmlns="http://www.w3.org/2000/svg">
<path d="M115.334 13.3522H35.4806V342.314H115.334V13.3522Z" stroke="#171717" style="stroke:#171717;stroke:color(display-p3 0.0902 0.0902 0.0902);stroke-opacity:1;" stroke-width="2" stroke-linecap="round" stroke-linejoin="round"/>
<path d="M115.334 60.2533H35.4806V85.6221H115.334V60.2533Z" stroke="#171717" style="stroke:#171717;stroke:color(display-p3 0.0902 0.0902 0.0902);stroke-opacity:1;" stroke-width="2" stroke-linecap="round" stroke-linejoin="round"/>
<path d="M298.061 13.3522H218.207V342.314H298.061V13.3522Z" stroke="#171717" style="stroke:#171717;stroke:color(display-p3 0.0902 0.0902 0.0902);stroke-opacity:1;" stroke-width="2" stroke-linecap="round" stroke-linejoin="round"/>
<path d="M298.061 60.2533H218.207V85.6221H298.061V60.2533Z" stroke="#171717" style="stroke:#171717;stroke:color(display-p3 0.0902 0.0902 0.0902);stroke-opacity:1;" stroke-width="2" stroke-linecap="round" stroke-linejoin="round"/>
<path d="M477.267 3.69953L402.017 30.4209L512.097 340.418L587.348 313.696L477.267 3.69953Z" stroke="#171717" style="stroke:#171717;stroke:color(display-p3 0.0902 0.0902 0.0902);stroke-opacity:1;" stroke-width="2" stroke-linecap="round" stroke-linejoin="round"/>
<path d="M492.971 47.9296L417.72 74.651L426.21 98.5573L501.46 71.8359L492.971 47.9296Z" stroke="#171717" style="stroke:#171717;stroke:color(display-p3 0.0902 0.0902 0.0902);stroke-opacity:1;" stroke-width="2" stroke-linecap="round" stroke-linejoin="round"/>
<path d="M400.904 13.3522H298.031V342.314H400.904V13.3522Z" stroke="#171717" style="stroke:#171717;stroke:color(display-p3 0.0902 0.0902 0.0902);stroke-opacity:1;" stroke-width="2" stroke-linecap="round" stroke-linejoin="round"/>
<path d="M400.904 60.2533H298.031V85.6221H400.904V60.2533Z" stroke="#171717" style="stroke:#171717;stroke:color(display-p3 0.0902 0.0902 0.0902);stroke-opacity:1;" stroke-width="2" stroke-linecap="round" stroke-linejoin="round"/>
<path d="M218.177 13.3522H115.305V342.314H218.177V13.3522Z" stroke="#171717" style="stroke:#171717;stroke:color(display-p3 0.0902 0.0902 0.0902);stroke-opacity:1;" stroke-width="2" stroke-linecap="round" stroke-linejoin="round"/>
<path d="M218.177 60.2533H115.305V85.6221H218.177V60.2533Z" stroke="#171717" style="stroke:#171717;stroke:color(display-p3 0.0902 0.0902 0.0902);stroke-opacity:1;" stroke-width="2" stroke-linecap="round" stroke-linejoin="round"/>
<path d="M64.567 300.141V287.829H68.6414V295.888H86.2182V300.171H64.5372L64.567 300.141Z" fill="#171717" style="fill:#171717;fill:color(display-p3 0.0902 0.0902 0.0902);fill-opacity:1;"/>
<path d="M83.4225 266.981C85.5936 269.182 86.6643 271.828 86.6643 274.981C86.6643 278.133 85.5936 280.78 83.4225 282.981C81.2217 285.152 78.5451 286.223 75.3926 286.223C72.2401 286.223 69.5634 285.152 67.3923 282.981C65.2213 280.81 64.1209 278.133 64.1209 274.981C64.1209 271.828 65.2213 269.182 67.3923 266.981C69.5634 264.78 72.2103 263.709 75.3926 263.709C78.5748 263.709 81.2217 264.81 83.4225 266.981ZM80.508 279.948C81.8165 278.639 82.5006 276.974 82.5006 274.951C82.5006 272.929 81.8463 271.293 80.508 269.955C79.1696 268.616 77.4744 267.932 75.3926 267.932C73.3107 267.932 71.6155 268.616 70.2772 269.955C68.9388 271.293 68.2548 272.959 68.2548 274.951C68.2548 276.944 68.9388 278.58 70.2772 279.948C71.6155 281.316 73.3107 281.97 75.3926 281.97C77.4744 281.97 79.1696 281.286 80.508 279.948Z" fill="#171717" style="fill:#171717;fill:color(display-p3 0.0902 0.0902 0.0902);fill-opacity:1;"/>
<path d="M64.567 259.129V251.04C64.567 248.988 65.2808 247.233 66.6786 245.776C68.0764 244.348 69.8013 243.634 71.8534 243.634C73.9055 243.634 75.6305 244.348 77.0283 245.776C78.4261 247.233 79.1399 248.988 79.1399 251.04V254.846H86.2479V259.129H64.567ZM75.1249 254.876V251.069C75.1249 250.177 74.7978 249.404 74.1732 248.809C73.5487 248.214 72.7754 247.917 71.8237 247.917C70.872 247.917 70.0987 248.214 69.4742 248.809C68.8496 249.404 68.5522 250.177 68.5522 251.069V254.876H75.1249Z" fill="#171717" style="fill:#171717;fill:color(display-p3 0.0902 0.0902 0.0902);fill-opacity:1;"/>
<path d="M86.2182 222.964V227.604L82.3221 228.912V237.537L86.2182 238.846V243.456L64.5372 235.872V230.578L86.2182 222.964ZM69.4742 233.195L78.3369 236.169V230.221L69.4742 233.195Z" fill="#171717" style="fill:#171717;fill:color(display-p3 0.0902 0.0902 0.0902);fill-opacity:1;"/>
<path d="M78.8127 198.399V209.997H74.9762V198.399H78.8127Z" fill="#171717" style="fill:#171717;fill:color(display-p3 0.0902 0.0902 0.0902);fill-opacity:1;"/>
<path d="M86.2182 170.234V184.718H83.0359L75.4223 177.312C73.6676 175.647 72.2103 174.844 71.0802 174.844C70.2474 174.844 69.5634 175.112 69.0281 175.647C68.4927 176.182 68.2548 176.837 68.2548 177.669C68.2548 179.335 69.0875 180.524 70.7828 181.298L68.6712 184.896C67.2139 184.242 66.0837 183.261 65.2807 182.011C64.4777 180.762 64.0911 179.335 64.0911 177.759C64.0911 175.796 64.7157 174.13 65.935 172.703C67.1544 171.305 68.7901 170.591 70.9017 170.591C73.162 170.591 75.452 171.781 77.8313 174.16L82.0842 178.413V170.264H86.1884L86.2182 170.234Z" fill="#171717" style="fill:#171717;fill:color(display-p3 0.0902 0.0902 0.0902);fill-opacity:1;"/>
<path d="M86.6643 158.13C86.6643 160.836 85.6531 162.948 83.601 164.494C81.5191 166.011 78.783 166.784 75.3926 166.784C72.0021 166.784 69.2957 166.011 67.2139 164.494C65.1618 162.948 64.1209 160.836 64.1209 158.13C64.1209 155.423 65.1618 153.252 67.2139 151.765C69.266 150.249 72.0021 149.475 75.3926 149.475C78.783 149.475 81.5191 150.249 83.601 151.765C85.6531 153.282 86.6643 155.394 86.6643 158.13ZM75.3926 153.699C73.0728 153.699 71.3181 154.085 70.0987 154.829C68.8794 155.572 68.2845 156.673 68.2845 158.13C68.2845 159.587 68.8794 160.658 70.0987 161.401C71.3181 162.145 73.0728 162.531 75.3926 162.531C77.7123 162.531 79.467 162.175 80.6567 161.401C81.876 160.658 82.4708 159.557 82.4708 158.13C82.4708 156.702 81.876 155.572 80.6567 154.829C79.4373 154.085 77.6826 153.699 75.3926 153.699Z" fill="#171717" style="fill:#171717;fill:color(display-p3 0.0902 0.0902 0.0902);fill-opacity:1;"/>
<path d="M86.2182 132.077V146.561H83.0359L75.4223 139.155C73.6676 137.49 72.2103 136.687 71.0802 136.687C70.2474 136.687 69.5634 136.955 69.0281 137.49C68.4927 138.025 68.2548 138.68 68.2548 139.512C68.2548 141.178 69.0875 142.367 70.7828 143.141L68.6712 146.739C67.2139 146.085 66.0837 145.104 65.2807 143.854C64.4777 142.605 64.0911 141.178 64.0911 139.602C64.0911 137.639 64.7157 135.973 65.935 134.546C67.1544 133.148 68.7901 132.434 70.9017 132.434C73.162 132.434 75.452 133.624 77.8313 136.003L82.0842 140.256V132.107H86.1884L86.2182 132.077Z" fill="#171717" style="fill:#171717;fill:color(display-p3 0.0902 0.0902 0.0902);fill-opacity:1;"/>
<path d="M72.4482 123.363V121.132C72.4482 119.021 73.0728 117.266 74.3219 115.868C75.571 114.441 77.296 113.727 79.5265 113.727C81.7571 113.727 83.5118 114.471 84.7609 115.987C86.01 117.445 86.6345 119.289 86.6345 121.46C86.6345 123.244 86.2479 124.791 85.4449 126.129C84.6419 127.467 83.5118 128.419 81.995 129.014L79.8537 125.356C81.5786 124.85 82.4411 123.541 82.4411 121.46C82.4411 120.359 82.1734 119.526 81.6381 118.902C81.1028 118.277 80.389 117.98 79.4968 117.98C78.6045 117.98 77.8908 118.277 77.3554 118.872C76.8201 119.467 76.5524 120.3 76.5524 121.311V127.884L64.5075 127.021V114.738H68.4927V123.066L72.3888 123.333L72.4482 123.363Z" fill="#171717" style="fill:#171717;fill:color(display-p3 0.0902 0.0902 0.0902);fill-opacity:1;"/>
<path d="M247.294 300.141V287.829H251.368V295.888H268.945V300.171H247.264L247.294 300.141Z" fill="#171717" style="fill:#171717;fill:color(display-p3 0.0902 0.0902 0.0902);fill-opacity:1;"/>
<path d="M266.119 266.981C268.29 269.182 269.361 271.828 269.361 274.981C269.361 278.133 268.29 280.78 266.119 282.981C263.919 285.152 261.242 286.223 258.089 286.223C254.937 286.223 252.26 285.152 250.089 282.981C247.918 280.81 246.818 278.133 246.818 274.981C246.818 271.828 247.918 269.182 250.089 266.981C252.26 264.78 254.907 263.709 258.089 263.709C261.272 263.709 263.919 264.81 266.119 266.981ZM263.234 279.948C264.543 278.639 265.227 276.974 265.227 274.951C265.227 272.929 264.573 271.293 263.234 269.955C261.896 268.616 260.201 267.932 258.119 267.932C256.037 267.932 254.342 268.616 253.004 269.955C251.665 271.293 250.981 272.959 250.981 274.951C250.981 276.944 251.665 278.58 253.004 279.948C254.342 281.316 256.037 281.97 258.119 281.97C260.201 281.97 261.896 281.286 263.234 279.948Z" fill="#171717" style="fill:#171717;fill:color(display-p3 0.0902 0.0902 0.0902);fill-opacity:1;"/>
<path d="M247.294 259.129V251.04C247.294 248.988 248.007 247.233 249.405 245.776C250.803 244.348 252.528 243.634 254.58 243.634C256.632 243.634 258.357 244.348 259.755 245.776C261.153 247.233 261.866 248.988 261.866 251.04V254.846H268.974V259.129H247.294ZM257.851 254.876V251.069C257.851 250.177 257.524 249.404 256.9 248.809C256.275 248.214 255.502 247.917 254.55 247.917C253.599 247.917 252.825 248.214 252.201 248.809C251.576 249.404 251.279 250.177 251.279 251.069V254.876H257.851Z" fill="#171717" style="fill:#171717;fill:color(display-p3 0.0902 0.0902 0.0902);fill-opacity:1;"/>
<path d="M268.945 222.964V227.604L265.049 228.912V237.537L268.945 238.846V243.456L247.264 235.872V230.578L268.945 222.964ZM252.201 233.195L261.063 236.169V230.221L252.201 233.195Z" fill="#171717" style="fill:#171717;fill:color(display-p3 0.0902 0.0902 0.0902);fill-opacity:1;"/>
<path d="M261.51 198.399V209.997H257.673V198.399H261.51Z" fill="#171717" style="fill:#171717;fill:color(display-p3 0.0902 0.0902 0.0902);fill-opacity:1;"/>
<path d="M268.945 170.234V184.718H265.762L258.149 177.312C256.394 175.647 254.937 174.844 253.807 174.844C252.974 174.844 252.29 175.112 251.755 175.647C251.219 176.182 250.981 176.837 250.981 177.669C250.981 179.335 251.814 180.524 253.509 181.298L251.398 184.896C249.94 184.242 248.81 183.261 248.007 182.011C247.204 180.762 246.818 179.335 246.818 177.759C246.818 175.796 247.442 174.13 248.662 172.703C249.881 171.305 251.517 170.591 253.628 170.591C255.889 170.591 258.179 171.781 260.558 174.16L264.811 178.413V170.264H268.915L268.945 170.234Z" fill="#171717" style="fill:#171717;fill:color(display-p3 0.0902 0.0902 0.0902);fill-opacity:1;"/>
<path d="M269.391 158.13C269.391 160.836 268.38 162.948 266.328 164.494C264.246 166.011 261.51 166.784 258.119 166.784C254.729 166.784 252.022 166.011 249.94 164.494C247.888 162.948 246.847 160.836 246.847 158.13C246.847 155.423 247.888 153.252 249.94 151.765C251.993 150.249 254.729 149.475 258.119 149.475C261.51 149.475 264.246 150.249 266.328 151.765C268.38 153.282 269.391 155.394 269.391 158.13ZM258.119 153.699C255.799 153.699 254.045 154.085 252.825 154.829C251.606 155.572 251.011 156.673 251.011 158.13C251.011 159.587 251.606 160.658 252.825 161.401C254.045 162.145 255.799 162.531 258.119 162.531C260.439 162.531 262.194 162.175 263.383 161.401C264.603 160.658 265.197 159.557 265.197 158.13C265.197 156.702 264.603 155.572 263.383 154.829C262.164 154.085 260.409 153.699 258.119 153.699Z" fill="#171717" style="fill:#171717;fill:color(display-p3 0.0902 0.0902 0.0902);fill-opacity:1;"/>
<path d="M250.803 132.702L256.067 136.747C256.513 135.23 257.257 134.04 258.357 133.148C259.457 132.256 260.736 131.81 262.253 131.81C264.484 131.81 266.238 132.553 267.487 134.07C268.737 135.527 269.361 137.371 269.361 139.542C269.361 141.267 268.974 142.784 268.171 144.092C267.368 145.401 266.238 146.382 264.781 146.977L262.669 143.319C264.335 142.814 265.168 141.535 265.168 139.542C265.168 138.442 264.9 137.609 264.365 136.984C263.829 136.39 263.116 136.062 262.223 136.062C261.331 136.062 260.617 136.36 260.082 136.984C259.547 137.609 259.279 138.442 259.279 139.542V140.464L256.811 142.1L251.249 137.817V146.293H247.264V132.672H250.803V132.702Z" fill="#171717" style="fill:#171717;fill:color(display-p3 0.0902 0.0902 0.0902);fill-opacity:1;"/>
<path d="M251.368 128.865H247.294V114.887H250.922L268.974 122.233V126.753L251.398 119.645V128.895L251.368 128.865Z" fill="#171717" style="fill:#171717;fill:color(display-p3 0.0902 0.0902 0.0902);fill-opacity:1;"/>
<path d="M526.38 291.308L522.157 279.739L525.993 278.341L528.759 285.896L545.265 279.858L546.722 283.873L526.38 291.308Z" fill="#171717" style="fill:#171717;fill:color(display-p3 0.0902 0.0902 0.0902);fill-opacity:1;"/>
<path d="M532.715 253.716C535.51 255.025 537.443 257.166 538.514 260.11C539.585 263.055 539.495 265.939 538.217 268.735C536.878 271.531 534.737 273.464 531.793 274.535C528.819 275.605 525.963 275.516 523.168 274.237C520.372 272.929 518.409 270.817 517.339 267.873C516.268 264.928 516.387 262.043 517.666 259.248C518.945 256.452 521.086 254.519 524.03 253.419C527.004 252.318 529.889 252.437 532.685 253.746L532.715 253.716ZM534.439 266.891C535.213 265.196 535.272 263.412 534.588 261.538C533.904 259.664 532.715 258.326 531.019 257.523C529.294 256.72 527.48 256.69 525.547 257.374C523.614 258.088 522.246 259.307 521.443 261.032C520.64 262.757 520.58 264.542 521.264 266.415C521.948 268.259 523.138 269.598 524.863 270.401C526.588 271.204 528.402 271.233 530.365 270.549C532.298 269.836 533.666 268.616 534.469 266.921L534.439 266.891Z" fill="#171717" style="fill:#171717;fill:color(display-p3 0.0902 0.0902 0.0902);fill-opacity:1;"/>
<path d="M512.312 252.824L509.547 245.24C508.833 243.307 508.892 241.404 509.725 239.56C510.558 237.746 511.926 236.467 513.859 235.783C515.762 235.069 517.636 235.158 519.45 236.021C521.264 236.883 522.513 238.311 523.227 240.244L524.536 243.813L531.227 241.374L532.685 245.389L512.342 252.824H512.312ZM520.759 245.181L519.45 241.612C519.153 240.749 518.588 240.155 517.785 239.827C516.982 239.471 516.149 239.471 515.286 239.798C514.394 240.125 513.77 240.66 513.383 241.433C512.996 242.207 512.967 243.039 513.294 243.872L514.602 247.441L520.759 245.181Z" fill="#171717" style="fill:#171717;fill:color(display-p3 0.0902 0.0902 0.0902);fill-opacity:1;"/>
<path d="M520.253 211.395L521.859 215.767L518.647 218.325L521.621 226.444L525.726 226.325L527.302 230.667L504.342 230.994L502.528 226.028L520.253 211.425V211.395ZM508.03 226.771L517.368 226.533L515.316 220.942L508.03 226.771Z" fill="#171717" style="fill:#171717;fill:color(display-p3 0.0902 0.0902 0.0902);fill-opacity:1;"/>
<path d="M504.848 190.904L508.833 201.819L505.234 203.127L501.249 192.212L504.848 190.904Z" fill="#171717" style="fill:#171717;fill:color(display-p3 0.0902 0.0902 0.0902);fill-opacity:1;"/>
<path d="M502.141 161.877L507.108 175.498L504.104 176.598L494.409 172.256C492.208 171.305 490.542 171.037 489.501 171.424C488.698 171.721 488.163 172.197 487.866 172.881C487.568 173.535 487.538 174.279 487.866 175.052C488.431 176.598 489.65 177.431 491.494 177.58L490.75 181.684C489.144 181.565 487.747 181.06 486.587 180.138C485.397 179.216 484.535 178.026 483.999 176.539C483.315 174.695 483.345 172.911 483.999 171.156C484.654 169.431 485.962 168.182 487.925 167.468C490.037 166.695 492.624 167.022 495.658 168.42L501.1 170.948L498.305 163.304L502.171 161.877H502.141Z" fill="#171717" style="fill:#171717;fill:color(display-p3 0.0902 0.0902 0.0902);fill-opacity:1;"/>
<path d="M498.394 150.367C499.316 152.895 499.108 155.245 497.71 157.416C496.282 159.557 493.963 161.223 490.78 162.383C487.598 163.543 484.773 163.751 482.304 163.037C479.836 162.293 478.14 160.658 477.219 158.1C476.267 155.513 476.505 153.163 477.932 151.051C479.36 148.91 481.65 147.245 484.832 146.085C488.014 144.925 490.84 144.687 493.308 145.431C495.747 146.144 497.442 147.78 498.364 150.367H498.394ZM486.289 150.07C484.118 150.873 482.602 151.825 481.709 152.955C480.817 154.085 480.639 155.304 481.115 156.672C481.62 158.041 482.572 158.844 483.97 159.111C485.367 159.379 487.152 159.111 489.323 158.338C491.494 157.535 493.011 156.583 493.903 155.483C494.766 154.382 494.974 153.133 494.468 151.765C493.962 150.397 493.011 149.594 491.613 149.297C490.215 148.999 488.431 149.267 486.289 150.04V150.07Z" fill="#171717" style="fill:#171717;fill:color(display-p3 0.0902 0.0902 0.0902);fill-opacity:1;"/>
<path d="M481.709 128.27L480.906 126.099L484.624 124.731L485.427 126.902L488.877 125.623L490.364 129.668L486.914 130.947L490.423 140.583L486.706 141.951L471.062 139.988L469.486 135.675L485.129 137.609L483.196 132.315L478.378 134.069L476.891 130.025L481.709 128.27Z" fill="#171717" style="fill:#171717;fill:color(display-p3 0.0902 0.0902 0.0902);fill-opacity:1;"/>
<path d="M472.252 120.27L471.479 118.188C470.765 116.225 470.735 114.352 471.449 112.597C472.133 110.842 473.501 109.563 475.583 108.82C477.694 108.047 479.568 108.165 481.263 109.147C482.958 110.099 484.178 111.586 484.921 113.638C485.546 115.303 485.695 116.909 485.397 118.426C485.1 119.943 484.356 121.251 483.137 122.322L479.865 119.616C481.323 118.545 481.68 117.028 480.966 115.065C480.579 114.024 480.044 113.34 479.36 112.954C478.646 112.567 477.873 112.537 477.01 112.835C476.178 113.132 475.612 113.667 475.315 114.411C475.018 115.155 475.047 116.017 475.404 116.998L477.665 123.155L466.066 126.486L461.843 114.946L465.59 113.578L468.445 121.4L472.192 120.329L472.252 120.27Z" fill="#171717" style="fill:#171717;fill:color(display-p3 0.0902 0.0902 0.0902);fill-opacity:1;"/>
<path d="M2.97407 342.313H32.7147" stroke="#171717" style="stroke:#171717;stroke:color(display-p3 0.0902 0.0902 0.0902);stroke-opacity:1;" stroke-width="2" stroke-linecap="round" stroke-linejoin="round"/>
<path d="M95.7649 342.313H568.76" stroke="#171717" style="stroke:#171717;stroke:color(display-p3 0.0902 0.0902 0.0902);stroke-opacity:1;" stroke-width="2" stroke-linecap="round" stroke-linejoin="round"/>
<path d="M600.285 342.313H630.026" stroke="#171717" style="stroke:#171717;stroke:color(display-p3 0.0902 0.0902 0.0902);stroke-opacity:1;" stroke-width="2" stroke-linecap="round" stroke-linejoin="round"/>
</svg>
